<svg id="Capa_1" enable-background="new 0 0 512 512" height="512" viewBox="0 0 512 512" width="512" xmlns="http://www.w3.org/2000/svg"><g><g><g><path d="m123.467 189.733c-28.631 0-51.607-24.209-49.575-53.273 1.674-23.954 20.664-43.519 44.561-45.879 4.593-.453 9.071-.275 13.361.454 4.432.753 8.632-2.188 9.327-6.629 6.824-43.572 44.522-76.906 90.009-76.906 34.826 0 65.085 19.541 80.42 48.255 1.765 3.305 5.574 4.984 9.177 3.96 5.749-1.634 11.813-2.515 18.086-2.515 29.495 0 54.48 19.273 63.07 45.909.837 2.595 3.022 4.492 5.655 5.198 17.671 4.732 30.681 20.859 30.675 40.024-.008 22.775-19.388 41.403-42.163 41.403h-272.603z" fill="#f5f5f5"/><g><g><g><path d="m125.931 90.401c-.512-.025-1.027-.042-1.543-.052.516.011 1.031.021 1.543.052z" fill="#e0e0e0"/></g></g></g><g><g><g><path d="m407.559 108.307c-2.634-.705-4.818-2.603-5.655-5.198-8.59-26.636-33.576-45.909-63.07-45.909-3.926 0-7.77.345-11.506 1.004 24.351 4.261 44.128 21.81 51.576 44.905.837 2.595 3.022 4.492 5.655 5.198 17.671 4.732 30.681 20.859 30.675 40.024-.008 22.775-19.388 41.403-42.163 41.403h23c22.775 0 42.155-18.628 42.163-41.403.006-19.165-13.005-35.292-30.675-40.024z" fill="#e0e0e0"/></g><g><path d="m288.57 55.755c1.765 3.305 5.574 4.984 9.177 3.96 4.766-1.354 9.751-2.182 14.89-2.429-.406-.462-.768-.971-1.067-1.531-15.335-28.714-45.593-48.255-80.42-48.255-3.891 0-7.718.262-11.48.735 29.898 3.774 55.283 22.025 68.9 47.52z" fill="#e0e0e0"/></g></g></g></g><g><circle cx="256" cy="189.733" fill="#6ed5a1" r="82.833"/><path d="m239.434 231.15v-39.603c0-2.287-1.854-4.142-4.142-4.142h-11.866c-3.512 0-5.43-4.096-3.182-6.793l32.574-39.089c1.656-1.987 4.708-1.987 6.363 0l32.574 39.089c2.248 2.698.33 6.793-3.182 6.793h-11.866c-2.287 0-4.142 1.854-4.142 4.142v39.603c0 4.575-3.709 8.283-8.283 8.283h-16.567c-4.573 0-8.281-3.708-8.281-8.283z" fill="#f5f5f5"/><path d="m256 106.9c-3.905 0-7.741.29-11.503.813 40.3 5.602 71.33 40.178 71.33 82.02s-31.03 76.418-71.33 82.02c3.762.523 7.597.813 11.503.813 45.748 0 82.833-37.086 82.833-82.833s-37.085-82.833-82.833-82.833z" fill="#46cc8d"/><path d="m288.574 187.406h-11.866c-2.287 0-4.142 1.854-4.142 4.142v39.603c0 4.575-3.709 8.283-8.283 8.283h-16.567c-1.141 0-2.228-.231-3.217-.648 2.977-1.256 5.067-4.201 5.067-7.635v-39.603c0-2.287 1.854-4.142 4.142-4.142h11.866c3.512 0 5.43-4.096 3.182-6.793l-24.256-29.107 8.318-9.982c1.656-1.987 4.708-1.987 6.363 0l32.574 39.089c2.249 2.697.331 6.793-3.181 6.793z" fill="#e0e0e0"/></g><g><path d="m355.435 371.967v-16.567c0-9.15-7.42-16.567-16.572-16.567h-42.853c-4.395 0-8.611-1.745-11.719-4.852l-23.436-23.429c-3.108-3.107-7.323-4.852-11.719-4.852h-109.143c-9.153 0-16.572 7.417-16.572 16.567v165.199c0 8.921 6.858 16.596 15.771 17.016l9.972.019z" fill="#fdb441"/><path d="m338.862 338.833h-23c9.153 0 16.572 7.417 16.572 16.567v31.345l23-14.778v-16.567c.001-9.149-7.419-16.567-16.572-16.567z" fill="#fd9941"/><path d="m139.192 504.481c9.517.448 17.373-7.133 17.373-16.548v-132.533c0-9.15 7.42-16.567 16.573-16.567h75.998c4.395 0 8.611 1.745 11.719 4.852l23.436 23.429c3.108 3.107 7.323 4.852 11.719 4.852h75.998c9.153 0 16.572 7.417 16.572 16.567v107.683c0 4.575-3.71 8.283-8.286 8.283h-240.3z" fill="#f9ce69"/><g><path d="m372.007 371.967h-23c9.153 0 16.572 7.417 16.572 16.567v107.683c0 4.575-3.71 8.283-8.286 8.283h23c4.576 0 8.286-3.709 8.286-8.283v-107.684c.001-9.149-7.419-16.566-16.572-16.566z" fill="#f9bb5f"/></g><path d="m347.435 471.367h-33.717c-4.418 0-8-3.582-8-8v-17.133c0-4.418 3.582-8 8-8h33.717c4.418 0 8 3.582 8 8v17.133c0 4.418-3.582 8-8 8z" fill="#f5f5f5"/><path d="m347.435 438.233h-23c4.418 0 8 3.582 8 8v17.133c0 4.418-3.582 8-8 8h23c4.418 0 8-3.582 8-8v-17.133c0-4.418-3.582-8-8-8z" fill="#e0e0e0"/></g></g><g><path d="m409.094 100.96c-9.694-30.413-37.934-51.26-70.261-51.26-6.966 0-13.817.97-20.451 2.889-16.983-32.16-50.509-52.589-87.231-52.589-49.099 0-90.292 36.112-97.496 83.742-3.348-.604-6.752-.909-10.188-.909-31.54 0-57.2 25.66-57.2 57.2s25.66 57.2 57.2 57.2h42.514c3.825 46.314 42.735 82.833 90.019 82.833s86.194-36.519 90.019-82.833h50.797c26.973 0 48.917-21.944 48.917-48.917.001-22.289-15.441-41.838-36.639-47.356zm-153.094 164.107c-41.539 0-75.333-33.794-75.333-75.333s33.794-75.334 75.333-75.334 75.333 33.794 75.333 75.334-33.794 75.333-75.333 75.333zm140.817-82.834h-50.797c-3.826-46.314-42.736-82.833-90.02-82.833s-86.194 36.519-90.019 82.834h-42.514c-23.27 0-42.2-18.931-42.2-42.2s18.931-42.2 42.2-42.2c4.777 0 9.469.801 13.953 2.372.124.049.247.104.372.15 9.224 3.344 17.184 9.854 22.233 18.581 1.391 2.403 3.909 3.746 6.499 3.746 1.275 0 2.566-.326 3.749-1.01 3.585-2.074 4.811-6.662 2.736-10.248-5.856-10.121-14.603-18.04-24.841-22.953 5.027-41.597 40.506-73.472 82.983-73.472 33.096 0 63.13 19.569 76.516 49.854 1.626 3.681 5.87 5.421 9.613 3.944 6.889-2.719 14.14-4.098 21.554-4.098 27.033 0 50.478 18.296 57.013 44.492.732 2.935 3.155 5.142 6.145 5.599 16.387 2.503 28.743 16.916 28.743 33.526-.001 18.702-15.216 33.916-33.918 33.916z"/><path d="m371.967 364.467h-9.066v-9.067c0-13.27-10.797-24.066-24.067-24.066h-42.838c-2.422 0-4.698-.943-6.41-2.656l-23.429-23.428c-4.545-4.546-10.589-7.049-17.019-7.049h-109.105c-13.271 0-24.066 10.796-24.066 24.066v165.199c0 13.138 10.064 23.902 22.913 24.507.393.018.783.028 1.174.028h240.196c8.703 0 15.783-7.08 15.783-15.783v-107.685c0-13.27-10.795-24.066-24.066-24.066zm9.066 24.066v9.067h-216.933v-42.2c0-4.999 4.067-9.066 9.067-9.066h75.972c2.422 0 4.698.943 6.41 2.655l23.429 23.428c4.545 4.546 10.589 7.05 17.018 7.05h75.972c4.998 0 9.065 4.067 9.065 9.066zm-250.066-66.266c0-4.999 4.067-9.066 9.066-9.066h109.104c2.423 0 4.699.943 6.411 2.655l23.429 23.428c4.545 4.546 10.589 7.05 17.018 7.05h42.838c5 0 9.067 4.067 9.067 9.066v9.067h-51.905c-2.422 0-4.698-.943-6.41-2.656l-23.429-23.428c-4.545-4.546-10.589-7.049-17.018-7.049h-75.972c-13.27 0-24.067 10.796-24.067 24.066v132.533c0 2.503-.998 4.834-2.81 6.562-1.811 1.726-4.18 2.61-6.705 2.494-4.752-.224-8.618-4.496-8.618-9.524v-165.198zm249.283 174.733h-217.941c1.164-2.859 1.791-5.939 1.791-9.067v-75.333h216.934v83.617c-.001.431-.352.783-.784.783z"/><path d="m222.867 364.467h-33.134c-4.143 0-7.5 3.358-7.5 7.5s3.357 7.5 7.5 7.5h33.134c4.143 0 7.5-3.358 7.5-7.5s-3.357-7.5-7.5-7.5z"/><path d="m347.401 430.733h-33.7c-8.547 0-15.5 6.953-15.5 15.5v17.133c0 8.547 6.953 15.5 15.5 15.5h33.7c8.547 0 15.5-6.953 15.5-15.5v-17.133c0-8.546-6.953-15.5-15.5-15.5zm.5 32.634c0 .276-.225.5-.5.5h-33.7c-.275 0-.5-.224-.5-.5v-17.133c0-.276.225-.5.5-.5h33.7c.275 0 .5.224.5.5z"/><path d="m264.945 136.723c-2.219-2.663-5.478-4.189-8.944-4.189s-6.726 1.527-8.943 4.189l-32.574 39.089c-2.923 3.508-3.536 8.256-1.6 12.391 1.938 4.135 5.977 6.704 10.543 6.704h8.508v36.244c0 8.703 7.08 15.783 15.783 15.783h16.566c8.703 0 15.783-7.08 15.783-15.783v-36.244h8.508c4.566 0 8.605-2.569 10.543-6.704 1.936-4.135 1.323-8.883-1.6-12.391zm11.763 43.183c-6.419 0-11.642 5.223-11.642 11.642v39.602c0 .432-.352.783-.783.783h-16.566c-.432 0-.783-.352-.783-.783v-39.602c0-6.419-5.223-11.642-11.642-11.642h-4.696l25.404-30.485 25.404 30.485z"/></g></g></svg>