<svg id="Layer_1" enable-background="new 0 0 510 510" height="512" viewBox="0 0 510 510" width="512" xmlns="http://www.w3.org/2000/svg"><g id="XMLID_1392_"><path id="XMLID_1408_" d="m510 180v-60h-30v30h-45v-75h-75v-45h15v-30h-45v75h-30v-60h-30v60h-30v-60h-30v60 15 105h48c6.191-17.459 22.865-30 42.42-30 24.814 0 45 20.187 45 45 0 24.812-20.186 45-45 45-19.555 0-36.228-12.541-42.42-30h-78v-135-15-75h-60v30h30v45h-75v75h-45v-30h-30v60h75v31h-60v30h60v29h-60v30h60v30h-75v60h30v-30h45v75h75v45h-30v30h60v-75h30v60h30v-60h30v60h30v-60-15-75h-77.58c-6.192 17.459-22.865 30-42.42 30-24.812 0-45-20.186-45-45 0-24.813 20.188-45 45-45 19.555 0 36.227 12.541 42.42 30h107.58v105 15 75h60v-30h-30v-45h75v-75h45v30h30v-60h-75v-30h60v-30h-60v-29h60v-30h-60v-31z"/><circle id="XMLID_1409_" cx="300.398" cy="209.97" r="15"/><circle id="XMLID_1449_" cx="180.398" cy="329.97" r="15"/></g></svg>